<?xml version="1.0" encoding="utf-8"?>
<!-- Generator: Adobe Illustrator 21.0.0, SVG Export Plug-In . SVG Version: 6.00 Build 0)  -->
<svg version="1.1" id="图层_1" xmlns="http://www.w3.org/2000/svg" xmlns:xlink="http://www.w3.org/1999/xlink" x="0px" y="0px"
	 viewBox="0 0 500 500" style="enable-background:new 0 0 500 500;" xml:space="preserve">
<style type="text/css">
	.st0{fill:#E9F3FA;}
	.st1{fill:url(#SVGID_1_);}
	.st2{fill:#B2DFF4;}
	.st3{fill:url(#SVGID_2_);}
	.st4{fill:#7AC3E8;}
	.st5{fill:#5DA8D7;}
	.st6{fill:url(#SVGID_3_);}
	.st7{fill:url(#SVGID_4_);}
	.st8{fill:url(#SVGID_5_);}
	.st9{fill:url(#SVGID_6_);}
	.st10{fill:url(#SVGID_7_);}
	.st11{fill:url(#SVGID_8_);}
	.st12{fill:url(#SVGID_9_);}
	.st13{fill:url(#SVGID_10_);}
	.st14{fill:url(#SVGID_11_);}
	.st15{fill:url(#SVGID_12_);}
	.st16{fill:url(#SVGID_13_);}
	.st17{clip-path:url(#SVGID_15_);fill:#1C6FAE;}
	.st18{clip-path:url(#SVGID_15_);fill:#B2DFF4;}
	.st19{fill:#1C6FAE;}
	.st20{font-family:'MicrosoftYaHei';}
	.st21{font-size:13.1818px;}
	.st22{fill:#7AC3E8;stroke:#5DA8D7;stroke-miterlimit:10;}
</style>
<circle class="st0" cx="243.6" cy="250" r="169.5"/>
<linearGradient id="SVGID_1_" gradientUnits="userSpaceOnUse" x1="247.4497" y1="344.0883" x2="247.4497" y2="375.8057">
	<stop  offset="0" style="stop-color:#FFFFFF;stop-opacity:0.8"/>
	<stop  offset="1" style="stop-color:#6FB2DB;stop-opacity:0.5189"/>
	<stop  offset="1" style="stop-color:#5DA8D7"/>
</linearGradient>
<ellipse class="st1" cx="247.4" cy="359.9" rx="156.1" ry="15.9"/>
<path class="st2" d="M158.8,144.5l10.1-13.9l19.8,17.5c0.6,0.5,0.7,1.6,0.1,2.5l-3.2,4.9c-0.6,0.9-1.6,1.3-2.3,0.9L158.8,144.5z"/>
<linearGradient id="SVGID_2_" gradientUnits="userSpaceOnUse" x1="176.802" y1="314.3349" x2="176.802" y2="336.8286">
	<stop  offset="0" style="stop-color:#B2DFF4"/>
	<stop  offset="0.2054" style="stop-color:#ADDCF3"/>
	<stop  offset="0.4661" style="stop-color:#9CD0EC"/>
	<stop  offset="0.7554" style="stop-color:#7FBCE2"/>
	<stop  offset="1" style="stop-color:#5DA8D7"/>
</linearGradient>
<path class="st3" d="M219.6,336.8H134v-18.5c0-2.2,1.8-4,4-4h77.6c2.2,0,4,1.8,4,4V336.8z"/>
<path class="st4" d="M228.3,353.7H125.3v-12.9c0-2.2,1.8-4,4-4h95.1c2.2,0,4,1.8,4,4V353.7z"/>
<rect x="125.3" y="353.7" class="st5" width="103.1" height="6.2"/>
<linearGradient id="SVGID_3_" gradientUnits="userSpaceOnUse" x1="25.0339" y1="201.7126" x2="61.1852" y2="264.3284" gradientTransform="matrix(0.918 -0.161 -0.161 1.0616 132.9681 -64.3488)">
	<stop  offset="0" style="stop-color:#B2DFF4"/>
	<stop  offset="0.2054" style="stop-color:#ADDCF3"/>
	<stop  offset="0.4661" style="stop-color:#9CD0EC"/>
	<stop  offset="0.7554" style="stop-color:#7FBCE2"/>
	<stop  offset="1" style="stop-color:#5DA8D7"/>
</linearGradient>
<path class="st6" d="M116,229.9l-24.1-16.4l62.3-90.7c1.9-2.7,5.1-3.7,7.4-2.2l11.9,7.7c2.3,1.5,2.7,4.9,1,7.7L116,229.9z"/>
<linearGradient id="SVGID_4_" gradientUnits="userSpaceOnUse" x1="143.6685" y1="240.0171" x2="219.3835" y2="315.7321" gradientTransform="matrix(1.076 5.656913e-02 5.656913e-02 1.0421 -78.0648 -58.1058)">
	<stop  offset="0" style="stop-color:#B2DFF4"/>
	<stop  offset="0.2054" style="stop-color:#ADDCF3"/>
	<stop  offset="0.4661" style="stop-color:#9CD0EC"/>
	<stop  offset="0.7554" style="stop-color:#7FBCE2"/>
	<stop  offset="1" style="stop-color:#5DA8D7"/>
</linearGradient>
<path class="st7" d="M190.7,257.5l-30.4,40.9l-71.7-59.9c-10.3-7.7-13.1-21.3-6.2-30.5l0,0c6.9-9.2,20.7-10.5,31-2.8L190.7,257.5z"
	/>
<linearGradient id="SVGID_5_" gradientUnits="userSpaceOnUse" x1="176.1771" y1="244.563" x2="176.1771" y2="314.3349">
	<stop  offset="0" style="stop-color:#B2DFF4"/>
	<stop  offset="0.2054" style="stop-color:#ADDCF3"/>
	<stop  offset="0.4661" style="stop-color:#9CD0EC"/>
	<stop  offset="0.7554" style="stop-color:#7FBCE2"/>
	<stop  offset="1" style="stop-color:#5DA8D7"/>
</linearGradient>
<path class="st8" d="M211.7,314.3h-71v-65.8c0-2.2,1.8-4,4-4h63c2.2,0,4,1.8,4,4V314.3z"/>
<path class="st2" d="M191.7,188.7c0.1-12.6,10-23.3,22.6-24.3c12-1,22.3,6.6,25.5,17.3c0.4,1.4,2.5,1.2,2.5-0.3
	c0.2-2.6-0.1-5.3-0.6-8c-2.4-15.1-16.8-29-32-30.1c-20.7-1.6-37.9,14.7-37.9,35c0,17.3,11.7,30.6,31.7,34.2c1.4,0.3,2-1.6,0.8-2.3
	C196.8,205.9,191.7,198,191.7,188.7z"/>
<g>
	<linearGradient id="SVGID_6_" gradientUnits="userSpaceOnUse" x1="281.631" y1="316.5158" x2="281.631" y2="359.947">
		<stop  offset="0" style="stop-color:#B2DFF4;stop-opacity:0.8"/>
		<stop  offset="0.2054" style="stop-color:#ADDCF3;stop-opacity:0.8"/>
		<stop  offset="0.4661" style="stop-color:#9CD0EC;stop-opacity:0.8"/>
		<stop  offset="0.7554" style="stop-color:#7FBCE2;stop-opacity:0.8"/>
		<stop  offset="1" style="stop-color:#5DA8D7;stop-opacity:0.8"/>
	</linearGradient>
	<polygon class="st9" points="245.8,326.8 261.6,316.5 303.6,316.5 318.3,338.9 305.2,359.9 266.9,359.9 244.9,338.9 	"/>
	<linearGradient id="SVGID_7_" gradientUnits="userSpaceOnUse" x1="301.1736" y1="316.5158" x2="301.1736" y2="339.1394">
		<stop  offset="0" style="stop-color:#B1DFF5;stop-opacity:0.3"/>
		<stop  offset="0.1327" style="stop-color:#A4D6F0;stop-opacity:0.3291"/>
		<stop  offset="0.4656" style="stop-color:#88C2E5;stop-opacity:0.4019"/>
		<stop  offset="0.7649" style="stop-color:#75B6DE;stop-opacity:0.4674"/>
		<stop  offset="1" style="stop-color:#6FB2DB;stop-opacity:0.5189"/>
		<stop  offset="1" style="stop-color:#5DA8D7;stop-opacity:0.8"/>
	</linearGradient>
	<path class="st10" d="M284,327l8-6.4c0.6-0.5,1.2-0.9,1.8-1.3c3.9-2.3,8.6-2.8,9.8-2.8l14.7,22.6L284,327z"/>
	<linearGradient id="SVGID_8_" gradientUnits="userSpaceOnUse" x1="274.064" y1="331.12" x2="304.0386" y2="361.0947">
		<stop  offset="0" style="stop-color:#FFFFFF;stop-opacity:0"/>
		<stop  offset="9.999067e-02" style="stop-color:#DEEBF7;stop-opacity:5.188313e-02"/>
		<stop  offset="0.2052" style="stop-color:#C0D9EE;stop-opacity:0.1065"/>
		<stop  offset="0.3189" style="stop-color:#A5CBE7;stop-opacity:0.1655"/>
		<stop  offset="0.4422" style="stop-color:#8EBFE2;stop-opacity:0.2294"/>
		<stop  offset="0.58" style="stop-color:#7DB8DE;stop-opacity:0.3009"/>
		<stop  offset="0.7436" style="stop-color:#72B3DC;stop-opacity:0.3859"/>
		<stop  offset="1" style="stop-color:#6FB2DB;stop-opacity:0.5189"/>
		<stop  offset="1" style="stop-color:#7AC3E8;stop-opacity:0.8"/>
	</linearGradient>
	<path class="st11" d="M266.9,359.9c-0.5-0.3-11-10.6-11-10.6L284,327l34.3,11.9l-13.1,21H266.9z"/>
	<linearGradient id="SVGID_9_" gradientUnits="userSpaceOnUse" x1="264.477" y1="325.699" x2="264.477" y2="349.3559">
		<stop  offset="0" style="stop-color:#AEDEF4;stop-opacity:0.6"/>
		<stop  offset="7.930022e-02" style="stop-color:#9FD3EE;stop-opacity:0.5936"/>
		<stop  offset="0.2203" style="stop-color:#8AC4E6;stop-opacity:0.5821"/>
		<stop  offset="0.3855" style="stop-color:#7BB9E0;stop-opacity:0.5687"/>
		<stop  offset="0.5954" style="stop-color:#71B3DC;stop-opacity:0.5517"/>
		<stop  offset="1" style="stop-color:#6FB2DB;stop-opacity:0.5189"/>
		<stop  offset="1" style="stop-color:#73B7DE;stop-opacity:0.8"/>
	</linearGradient>
	<path class="st12" d="M245.9,326.8l13.2-1.1c1.1-0.1,5.8,0,6,0c2.7,0,19,0.3,18.9,1.3c-0.7,5.2-4.9,21.1-28.2,22.3l-10.9-10.4
		L245.9,326.8z"/>
</g>
<g>
	<linearGradient id="SVGID_10_" gradientUnits="userSpaceOnUse" x1="325.8186" y1="353.4279" x2="325.8186" y2="360.0046">
		<stop  offset="0" style="stop-color:#B2DFF4"/>
		<stop  offset="0.2054" style="stop-color:#ADDCF3"/>
		<stop  offset="0.4661" style="stop-color:#9CD0EC"/>
		<stop  offset="0.7554" style="stop-color:#7FBCE2"/>
		<stop  offset="1" style="stop-color:#5DA8D7"/>
	</linearGradient>
	<polygon class="st13" points="320.4,355 322.8,353.4 329.2,353.4 331.4,356.8 329.4,360 323.6,360 320.3,356.8 	"/>
	<linearGradient id="SVGID_11_" gradientUnits="userSpaceOnUse" x1="328.7779" y1="353.4279" x2="328.7779" y2="356.8538">
		<stop  offset="0" style="stop-color:#B1DFF5;stop-opacity:0.5"/>
		<stop  offset="0.1327" style="stop-color:#A4D6F0;stop-opacity:0.5025"/>
		<stop  offset="0.4656" style="stop-color:#88C2E5;stop-opacity:0.5088"/>
		<stop  offset="0.7649" style="stop-color:#75B6DE;stop-opacity:0.5144"/>
		<stop  offset="1" style="stop-color:#6FB2DB;stop-opacity:0.5189"/>
		<stop  offset="1" style="stop-color:#5DA8D7"/>
	</linearGradient>
	<path class="st14" d="M326.2,355l1.2-1c0.1-0.1,0.2-0.1,0.3-0.2c0.6-0.3,1.3-0.4,1.5-0.4l2.2,3.4L326.2,355z"/>
	<linearGradient id="SVGID_12_" gradientUnits="userSpaceOnUse" x1="324.6728" y1="355.6394" x2="329.2118" y2="360.1784">
		<stop  offset="0" style="stop-color:#FFFFFF;stop-opacity:0.1"/>
		<stop  offset="9.999067e-02" style="stop-color:#DEEBF7;stop-opacity:0.1419"/>
		<stop  offset="0.2052" style="stop-color:#C0D9EE;stop-opacity:0.1859"/>
		<stop  offset="0.3189" style="stop-color:#A5CBE7;stop-opacity:0.2336"/>
		<stop  offset="0.4422" style="stop-color:#8EBFE2;stop-opacity:0.2852"/>
		<stop  offset="0.58" style="stop-color:#7DB8DE;stop-opacity:0.3429"/>
		<stop  offset="0.7436" style="stop-color:#72B3DC;stop-opacity:0.4115"/>
		<stop  offset="1" style="stop-color:#6FB2DB;stop-opacity:0.5189"/>
		<stop  offset="1" style="stop-color:#5DA8D7"/>
	</linearGradient>
	<path class="st15" d="M323.6,360c-0.1,0-1.7-1.6-1.7-1.6l4.3-3.4l5.2,1.8l-2,3.2H323.6z"/>
	<linearGradient id="SVGID_13_" gradientUnits="userSpaceOnUse" x1="323.221" y1="354.8185" x2="323.221" y2="358.4008">
		<stop  offset="0" style="stop-color:#AEDEF4;stop-opacity:0.8"/>
		<stop  offset="7.930022e-02" style="stop-color:#9FD3EE;stop-opacity:0.7777"/>
		<stop  offset="0.2203" style="stop-color:#8AC4E6;stop-opacity:0.7381"/>
		<stop  offset="0.3855" style="stop-color:#7BB9E0;stop-opacity:0.6916"/>
		<stop  offset="0.5954" style="stop-color:#71B3DC;stop-opacity:0.6326"/>
		<stop  offset="1" style="stop-color:#6FB2DB;stop-opacity:0.5189"/>
		<stop  offset="1" style="stop-color:#73B7DE"/>
	</linearGradient>
	<path class="st16" d="M320.4,355l2-0.2c0.2,0,0.9,0,0.9,0c0.4,0,2.9,0,2.9,0.2c-0.1,0.8-0.7,3.2-4.3,3.4l-1.6-1.6L320.4,355z"/>
</g>
<g>
	<rect x="254.7" y="273.2" class="st4" width="114.9" height="43.3"/>
	<rect x="263.6" y="316.5" class="st5" width="5.1" height="46.4"/>
	<rect x="357.8" y="316.5" class="st5" width="5.1" height="46.4"/>
	<g>
		<defs>
			<rect id="SVGID_14_" x="254.7" y="273.2" width="114.9" height="43.3"/>
		</defs>
		<clipPath id="SVGID_15_">
			<use xlink:href="#SVGID_14_"  style="overflow:visible;"/>
		</clipPath>
		<polygon class="st17" points="274.9,273.2 264.3,273.2 255.8,279.9 266.4,279.9 		"/>
		<polygon class="st17" points="381.4,273.2 370.8,273.2 362.3,279.9 372.9,279.9 		"/>
		<polygon class="st17" points="381.4,309.8 370.8,309.8 362.3,316.5 372.9,316.5 		"/>
		<polygon class="st18" points="285.5,273.2 274.9,273.2 266.4,279.9 277,279.9 		"/>
		<polygon class="st17" points="296.2,273.2 285.6,273.2 277.2,279.9 287.8,279.9 		"/>
		<polygon class="st18" points="306.8,273.2 296.2,273.2 287.8,279.9 298.4,279.9 		"/>
		<polygon class="st17" points="317.5,273.2 306.9,273.2 298.4,279.9 309,279.9 		"/>
		<polygon class="st18" points="328.1,273.2 317.5,273.2 309,279.9 319.6,279.9 		"/>
		<polygon class="st17" points="338.8,273.2 328.2,273.2 319.8,279.9 330.4,279.9 		"/>
		<polygon class="st17" points="360.1,273.2 349.5,273.2 341.1,279.9 351.7,279.9 		"/>
		<polygon class="st18" points="349.4,273.2 338.8,273.2 330.4,279.9 341,279.9 		"/>
		<polygon class="st18" points="370.8,273.2 360.2,273.2 351.7,279.9 362.3,279.9 		"/>
		<polygon class="st18" points="264.3,273.2 253.7,273.2 245.2,279.9 255.8,279.9 		"/>
		<polygon class="st18" points="264.3,309.8 253.7,309.8 245.2,316.5 255.8,316.5 		"/>
		<polygon class="st17" points="274.9,309.8 264.3,309.8 255.8,316.5 266.4,316.5 		"/>
		<polygon class="st18" points="285.5,309.8 274.9,309.8 266.4,316.5 277,316.5 		"/>
		<polygon class="st17" points="296.2,309.8 285.6,309.8 277.2,316.5 287.8,316.5 		"/>
		<polygon class="st18" points="306.8,309.8 296.2,309.8 287.8,316.5 298.4,316.5 		"/>
		<polygon class="st17" points="317.5,309.8 306.9,309.8 298.4,316.5 309,316.5 		"/>
		<polygon class="st18" points="328.1,309.8 317.5,309.8 309,316.5 319.6,316.5 		"/>
		<polygon class="st17" points="338.8,309.8 328.2,309.8 319.8,316.5 330.4,316.5 		"/>
		<polygon class="st17" points="360.1,309.8 349.5,309.8 341.1,316.5 351.7,316.5 		"/>
		<polygon class="st18" points="349.4,309.8 338.8,309.8 330.4,316.5 341,316.5 		"/>
		<polygon class="st18" points="370.8,309.8 360.2,309.8 351.7,316.5 362.3,316.5 		"/>
	</g>
	<text transform="matrix(1 0 0 1 281.6299 299.6885)" class="st19 st20 st21">正在施工...</text>
</g>
<g>
	<path class="st22" d="M187.6,256.9H166c-0.4,0-0.7,0.2-0.9,0.5L154.4,276c-0.2,0.3-0.2,0.7,0,1l10.8,18.6c0.2,0.3,0.5,0.5,0.9,0.5
		h21.5c0.4,0,0.7-0.2,0.9-0.5l10.8-18.6c0.2-0.3,0.2-0.7,0-1l-10.8-18.6C188.2,257.1,187.9,256.9,187.6,256.9z"/>
	<circle class="st5" cx="176.8" cy="276.5" r="9.3"/>
</g>
<g>
	<path class="st22" d="M111.2,208.1H95.5c-0.4,0-0.7,0.2-0.9,0.5l-7.8,13.6c-0.2,0.3-0.2,0.7,0,1l7.8,13.6c0.2,0.3,0.5,0.5,0.9,0.5
		h15.7c0.4,0,0.7-0.2,0.9-0.5l7.8-13.6c0.2-0.3,0.2-0.7,0-1l-7.8-13.6C111.9,208.3,111.5,208.1,111.2,208.1z"/>
	<circle class="st5" cx="103.4" cy="222.6" r="6.9"/>
</g>
<g>
	<path class="st22" d="M164.1,127.2h-8.3c-0.4,0-0.7,0.2-0.9,0.5l-4.2,7.2c-0.2,0.3-0.2,0.7,0,1l4.2,7.2c0.2,0.3,0.5,0.5,0.9,0.5
		h8.3c0.4,0,0.7-0.2,0.9-0.5l4.2-7.2c0.2-0.3,0.2-0.7,0-1l-4.2-7.2C164.8,127.4,164.5,127.2,164.1,127.2z"/>
	<circle class="st5" cx="160" cy="135.4" r="3.9"/>
</g>
</svg>
