<?xml version="1.0" encoding="UTF-8"?>
<svg width="400px" height="400px" viewBox="0 0 400px 400px" version="1.1" xmlns="http://www.w3.org/2000/svg" xmlns:xlink="http://www.w3.org/1999/xlink">
    <!-- Generator: Sketch 51.1 (57501) - http://www.bohemiancoding.com/sketch -->
    <title>burger_DL</title>
    <desc>Created with Sketch.</desc>
    <defs></defs>
    <g id="burger_DL" stroke="none" stroke-width="1" fill="none" fill-rule="evenodd">
        <g id="burger" transform="translate(0.000000, 41.000000)">
            <path d="M20.3203125,147.640625 C46.0234375,57.328125 103.916667,12.171875 194,12.171875 C329.125,12.171875 376.039062,130.632813 376.039062,167.414062 C376.039062,204.195313 402.015625,301.640625 332.96875,301.640625 C263.921875,301.640625 38.3671875,301.46875 20.3203125,287.59375 C8.2890625,278.34375 8.2890625,231.692708 20.3203125,147.640625 Z" id="Path-3" fill="#FFFFFF"></path>
            <path d="M187.371821,19.2316698 C190.567327,19.3112272 193.738926,19.466806 196.931775,19.6736552 C199.294094,19.8265822 201.647558,20.1209445 203.994825,20.4303342 C213.586654,21.8588311 223.135983,23.4367191 232.646353,25.3231129 C241.881355,27.1600043 251.035784,29.2594351 260.129118,31.6832831 C264.140987,32.7537718 268.136033,33.9824913 272.085922,35.2465696 C274.250791,35.9404868 276.384669,36.690094 278.525632,37.4564968 C279.702364,37.8781509 280.857846,38.3572631 282.010672,38.8416791 C285.378836,40.4947046 288.703613,42.178669 291.91063,44.1384324 C295.341659,46.2343273 298.710708,48.4133154 302.072674,50.6197067 C308.209567,54.6479618 314.274741,58.7831774 320.133611,63.2039157 C324.126001,66.3207969 328.176829,69.378452 332.080676,72.6014098 C334.307524,74.4418371 336.452028,76.3441423 338.544292,78.3366126 C340.412542,80.1178139 342.062978,82.146527 343.72581,84.116014 C347.722627,89.391552 351.617619,94.760791 355.401934,100.191024 C357.239195,102.828793 358.895828,105.677831 360.386002,108.523333 C361.972687,111.556237 363.423016,114.649251 364.854751,117.756409 C365.694136,119.790426 366.488364,121.827978 367.061235,123.961884 C367.73593,126.471477 368.237967,129.010242 368.701045,131.568453 C369.116311,133.850866 369.517409,136.136814 369.994654,138.40862 C370.510858,140.847495 371.04477,143.276647 371.460036,145.73497 C371.768164,148.298485 371.978896,150.864653 372.166606,153.43966 C372.186086,153.703967 372.208221,153.968274 372.231242,154.233466 C371.167845,154.494237 370.162,155.033459 369.344751,155.850248 C367.78817,157.404269 366.228934,158.950334 364.528914,160.34966 C363.235305,161.263686 361.888571,162.058376 360.455065,162.734613 C356.241319,164.330181 351.753975,165.084208 347.305591,165.732158 C342.926269,166.264309 338.555802,166.677123 334.149033,166.927287 C329.257935,167.206622 324.329649,167.075794 319.431467,167.030712 C314.793601,166.989165 310.148652,166.979441 305.510786,166.858337 C300.537343,166.726626 295.566557,166.561323 290.593114,166.505633 C281.472332,166.402208 272.400248,167.604409 263.293633,167.876672 C253.820451,168.160426 244.347269,168.367276 234.873202,168.674897 C224.843086,169.002851 214.809429,169.254782 204.775772,169.565056 C195.420351,169.852347 186.071129,169.952235 176.71925,169.558868 C172.087582,169.365279 167.4568,169.216772 162.825132,169.061193 C158.045598,168.898542 153.279345,168.602412 148.506009,168.336337 C143.702568,168.066725 138.891158,167.828937 134.077092,167.780319 C129.334746,167.735236 124.596827,167.804186 119.854481,167.828937 C104.497637,167.912915 89.0664177,168.102968 73.7671269,166.557787 C68.2013336,165.615474 62.7187704,164.312501 57.4292303,162.322683 C53.3173079,160.426565 49.2647092,158.411996 45.1430471,156.537094 C42.9852618,155.55677 40.8682062,154.506613 38.8033907,153.350379 C36.9634737,152.318785 35.2616833,151.067082 33.5731742,149.81096 C31.8687275,148.471744 30.1988124,147.090981 28.7263476,145.49895 C28.5333245,145.193096 28.3535829,144.881054 28.18181,144.559289 C27.8940463,143.7204 27.6647208,142.870904 27.4840937,141.996657 C27.3326857,140.077557 27.401749,138.183207 27.5841469,136.26941 C28.2384774,132.775073 29.1664047,129.34615 29.9526638,125.878333 C30.7796525,122.228417 31.5163276,118.557286 32.6124861,114.970133 C34.8198553,107.739251 37.347749,100.630357 40.2005943,93.6328442 C41.5845165,90.4655766 42.9941161,87.3098007 44.4276222,84.1655164 C46.3764467,79.8897494 48.4173557,75.6838161 51.1772312,71.8703659 C53.7777299,68.6721593 56.640315,65.6922936 59.5002438,62.7256874 C62.3052761,59.8121195 65.3157274,57.1098206 68.378419,54.4729356 C69.9713019,53.2601276 71.5889768,52.0764906 73.3146737,51.0581562 C75.9948609,49.4767324 78.6962982,47.9536506 81.4322672,46.4721154 C84.1886011,44.9773207 86.9449349,43.4789902 89.7083522,41.9939191 C91.7917616,40.8739281 93.9318383,39.8812288 96.0878528,38.9123967 C98.0924592,38.1495299 100.097951,37.41937 102.13886,36.7387124 C104.293989,36.0200441 106.48365,35.4127562 108.665341,34.7939766 C113.327999,33.4715562 118.00748,32.2118977 122.645346,30.80992 C127.356703,29.383191 132.022017,27.8123748 136.750196,26.4316123 C141.156966,25.1463187 145.711602,24.2384807 150.229049,23.4376031 C156.786521,22.2769494 163.343107,21.135743 169.931568,20.1775186 C175.708978,19.5852581 181.558994,19.0937703 187.371821,19.2316698 M178.203226,0.0671817845 C173.478588,0.264307284 168.781399,0.568393256 164.087751,1.17568123 C158.412164,1.91114497 152.743662,2.68815535 147.091982,3.58980562 C142.187603,4.37035187 137.341661,5.30912892 132.520512,6.50072162 C127.948168,7.63308828 123.475877,9.21097624 119.003585,10.6712961 C109.876605,13.6520458 100.447695,15.737333 91.5279044,19.3218348 C88.7990188,20.4161907 86.0356015,21.5211543 83.427134,22.8851213 C81.2038271,24.0484269 79.0070831,25.2400196 76.8183078,26.4758109 C72.6125302,28.8448528 68.4271174,31.2757726 64.3559247,33.8693431 C55.8310348,39.30046 48.6812129,46.6524455 42.0617616,54.2139321 C39.7029844,56.9073913 37.4407188,59.7042751 35.3617365,62.6222628 C33.3695261,65.4120748 31.8306542,68.5333759 30.4573571,71.6688205 C28.18181,76.869221 25.9682429,82.0970246 23.8131139,87.3495794 C22.1086672,91.4927508 20.5830767,95.7260871 19.2336861,100.00097 C17.7018976,104.838943 16.2940689,109.673379 15.2049939,114.631572 C14.7312905,116.789345 14.464777,119.006343 14.1256585,121.185332 C13.7351853,123.685201 13.3199201,126.174463 12.9188217,128.671681 C12.4761083,131.437625 12.0679265,134.278708 12.0156863,137.089735 C11.9289145,141.420308 12.1608963,145.842814 13.7661752,149.921456 C14.1982635,151.026419 14.6684252,152.096908 15.2253587,153.142646 C15.7273957,154.085843 16.5402176,155.031691 17.1794958,155.829033 C17.7541378,156.544165 18.3588844,157.21068 19.0096731,157.855978 C19.8428598,158.678071 20.7318284,159.433866 21.6376201,160.176402 C23.8795209,162.007105 26.196683,163.74676 28.5793667,165.390946 C32.3043575,167.959765 36.5827402,169.655221 40.7229962,171.423163 C45.4679988,173.450108 50.0757602,175.743128 54.9137326,177.555269 C56.9581832,178.322555 59.1513856,178.808739 61.2746392,179.299343 C63.5785199,179.835029 65.8921403,180.383975 68.2367507,180.719 C71.1524613,181.136234 74.068172,181.540209 77.0148726,181.695788 C79.3116699,181.813356 81.6049255,181.909709 83.8981811,182.006946 C88.6157354,182.203187 93.312925,182.286281 98.034021,182.224403 C107.672778,182.096227 117.315962,182.013134 126.955604,181.840759 C131.648367,181.757666 136.338473,181.833687 141.032121,181.982195 C145.649622,182.12363 150.252956,182.503737 154.866915,182.755669 C159.564105,183.011137 164.260409,183.142848 168.96114,183.336438 C174.139117,183.546823 179.312666,183.781075 184.494184,183.923395 C193.680487,184.175326 202.897781,183.750136 212.077001,183.453122 C222.045137,183.132241 232.013273,182.842298 241.981408,182.545284 C251.19516,182.268601 260.426621,182.396777 269.63329,181.954791 C274.517304,181.719655 279.397777,181.412917 284.280906,181.239659 C289.005544,181.070821 293.737265,181.195461 298.461903,181.281206 C307.855397,181.458 317.284307,181.40231 326.670717,180.90817 C331.606087,180.649167 336.497185,180.24254 341.394481,179.596357 C344.19243,179.230393 346.980639,178.791944 349.767963,178.346422 C351.870852,178.011398 353.994991,177.659577 356.069546,177.172509 C357.245393,176.895826 358.422125,176.630635 359.587347,176.299146 C362.074511,175.591085 364.460736,174.72391 366.815972,173.63309 C369.317302,172.475972 371.595506,170.765488 373.684228,168.945393 C375.314299,169.648149 377.581877,169.125723 378.395584,167.434686 C378.827672,166.540992 379.170333,165.677352 379.322626,164.699681 C379.44393,163.933278 379.540441,163.163339 379.637838,162.389865 C379.644921,162.327987 379.65289,162.266109 379.659974,162.204231 C379.942425,161.3291 380.030082,160.400046 379.92206,159.492208 C379.935341,159.317182 379.949508,159.140388 379.96279,158.964478 C380.038936,157.97001 379.979613,156.958748 379.948623,155.967816 C379.907008,154.793019 379.903466,153.619106 379.893726,152.445193 C379.865393,150.041676 379.796329,147.648767 379.637838,145.252322 C379.478461,142.773668 379.080905,140.308273 378.703713,137.856138 C377.987402,133.229434 377.386198,128.581516 376.614105,123.961884 C375.857065,119.393523 374.214598,115.084165 372.509266,110.795138 C370.641016,106.085342 368.521304,101.440959 366.048306,97.0175686 C363.630206,92.6940671 360.828715,88.6092378 358.092746,84.4828619 C355.350579,80.3467623 352.634975,76.1479008 349.373948,72.3874888 C347.793461,70.5638569 346.209432,68.7517167 344.444776,67.1004592 C342.570328,65.3431251 340.661347,63.6370614 338.696585,61.979616 C335.220399,59.0483687 331.776089,56.0720389 328.265371,53.1779183 C324.128657,49.7737466 319.891889,46.4897949 315.627674,43.2473898 C311.926589,40.4363625 308.212224,37.6500864 304.434993,34.9460196 C300.537343,32.1562076 296.590996,29.4247376 292.412667,27.0733752 C287.860687,24.5178155 283.12631,22.3600426 278.269743,20.4471297 C273.749639,18.6685803 269.204743,16.8971028 264.580158,15.4129157 C255.546148,12.5187952 246.425366,10.0224615 237.180624,7.88148408 C227.741974,5.69896006 218.227176,3.70383785 208.642431,2.26384934 C205.470832,1.78385317 202.299233,1.3312601 199.114352,0.954688516 C196.689168,0.668281961 194.264869,0.471156462 191.833487,0.264307284 C189.543773,0.0707176679 187.230153,0.0433145716 184.933355,0.0194473587 C183.976209,0.00883970848 183.017292,0 182.058374,0 C180.772735,0 179.487095,0.0159114753 178.203226,0.0671817845" id="Fill-1" fill="#2C2C2C"></path>
            <path d="M369.300622,211.399684 C369.235072,211.453709 369.16775,211.505962 369.097771,211.556443 C369.165978,211.50419 369.2333,211.451937 369.300622,211.399684 M26.0467116,208.454029 C26.0998603,208.52311 26.153009,208.591304 26.2061577,208.660385 C26.1512374,208.599275 26.0998603,208.536394 26.0511407,208.470857 C26.049369,208.465543 26.0475974,208.460229 26.0467116,208.454029 M280.64856,187.529783 C290.368574,187.426163 300.060243,186.716761 309.704078,185.491914 C314.219062,184.918016 318.749104,184.221899 323.292434,183.903953 C328.008497,183.575379 332.769736,183.478843 337.468083,182.935057 C343.769749,182.208829 350.115706,181.136313 356.465206,181.751836 C358.800207,181.980332 361.125463,182.267281 363.454263,182.548031 C364.385251,182.660508 365.325983,182.729588 366.264944,182.765014 C366.357069,182.962512 366.458937,183.154697 366.568778,183.34334 C367.641496,185.173968 369.21647,186.553802 370.614281,188.102795 C370.880024,188.504878 371.125394,188.912275 371.350391,189.337384 C371.544383,189.966192 371.700286,190.595886 371.829615,191.23975 C372.028923,193.57431 372.008549,195.922154 372.008549,198.264685 C372.011206,200.574447 371.989947,202.868267 371.774695,205.162973 C371.518695,206.501182 371.208661,207.798652 370.761326,209.091694 C370.606309,209.41584 370.441548,209.734672 370.268814,210.049076 C369.895887,209.928628 369.523846,209.804638 369.150034,209.687733 C368.118949,209.366244 367.07369,209.117377 366.022232,208.885338 C363.931715,208.425689 361.831455,208.017406 359.738281,207.587869 C357.022382,207.034341 354.26042,206.609231 351.492258,206.44273 C349.219264,206.308112 346.942728,206.249659 344.665305,206.166409 C335.253553,205.816579 325.841801,205.131975 316.420305,205.442837 C306.724207,205.761669 297.043168,206.415275 287.34707,206.667684 C282.409554,206.796102 277.472038,206.88201 272.538065,207.024598 C267.915013,207.159216 263.29196,207.456793 258.675994,207.747285 C253.942215,208.048404 249.216408,208.404433 244.486172,208.733007 C239.627493,209.075752 234.762614,209.241368 229.894191,209.393699 C225.365035,209.532745 220.838535,209.691275 216.309379,209.805523 C211.642036,209.923314 206.970263,209.985309 202.309121,210.235061 C197.531051,210.491013 192.766268,210.861212 187.994399,211.217241 C182.90098,211.598069 177.821735,211.87439 172.714143,212.009008 C167.977706,212.130341 163.202294,211.81948 158.472058,211.569728 C153.904811,211.327947 149.350852,210.885125 144.783606,210.643343 C140.624718,210.421932 136.482662,210.390049 132.320231,210.532638 C128.219807,210.670798 124.133557,210.763791 120.02959,210.636258 C116.022177,210.514925 112.012106,210.317426 108.022409,209.881689 C104.158497,209.460122 100.298128,209.001358 96.4404172,208.523995 C92.1539731,207.89253 87.8887885,207.15656 83.6209464,206.40819 C78.1501717,205.449922 72.6625665,204.65107 67.1537019,203.955839 C62.4828154,203.367771 57.8012991,202.855868 53.1197828,202.37142 C48.5002734,201.894058 43.8320443,201.600024 39.1921612,201.997678 C37.3824474,202.153552 35.5895639,202.37762 33.7904798,202.630914 C32.7771109,202.772617 31.7283096,203.004656 30.7663178,203.346515 C29.5589561,203.776053 28.3755113,204.242788 27.1956097,204.737863 C26.6844962,204.951304 26.1724969,205.15146 25.6578401,205.337445 C25.4744771,203.008199 25.3318613,200.67541 25.1405259,198.344393 C24.8331492,194.627341 24.2387694,190.950144 23.6691923,187.266747 C23.5770678,186.356304 23.5363205,185.455603 23.5823827,184.53896 C23.6629916,184.169646 23.7568876,183.81096 23.8685,183.447846 C23.8835588,183.422162 23.8986176,183.396478 23.9136764,183.369909 C24.0837523,183.188352 24.259143,183.012994 24.4425061,182.84295 C24.5240008,182.789812 24.6072671,182.73933 24.6914193,182.689734 C24.9793082,182.602941 25.2698545,182.532089 25.5692589,182.468323 C27.6075123,182.287651 29.6625961,182.228313 31.7043926,182.091038 C33.81794,181.952877 35.9288299,181.866084 38.0503496,181.869627 C42.575963,181.869627 47.0989189,182.091038 51.620989,182.274366 C56.327308,182.468323 61.0566581,182.475408 65.7523473,182.900517 C70.4134899,183.32297 75.067546,183.841958 79.7322319,184.239612 C84.5032151,184.647895 89.2990011,185.139428 94.0850432,185.294415 C99.098739,185.460917 104.098262,185.491914 109.111957,185.481287 C118.406782,185.460917 127.693635,185.54771 136.974287,186.069355 C141.468897,186.322649 145.963507,186.567973 150.46166,186.602513 C155.538249,186.644138 160.613951,186.678678 165.686996,186.733588 C175.174928,186.834552 184.659317,186.827467 194.147249,186.851379 C203.942558,186.878834 213.721036,187.529783 223.510144,187.789277 C232.998076,188.041686 242.489552,187.854815 251.963311,187.328742 C256.76264,187.063048 261.547796,186.847837 266.354212,187.048878 C270.804531,187.22955 275.251307,187.534211 279.704284,187.534211 C280.018747,187.534211 280.333211,187.533326 280.64856,187.529783 M29.4721465,172.263037 C28.4826945,172.310861 27.4967858,172.348944 26.5073338,172.383484 C23.8906453,172.47382 21.3961987,172.805937 19.1232052,174.183115 C17.2576852,175.310541 15.6525939,177.064117 14.6728859,178.991281 C13.4442647,181.406434 13.0367912,184.152819 13.0013587,186.834552 C12.980985,188.633297 13.1953515,190.439127 13.2679881,192.237871 C13.4035173,195.583838 13.2786179,198.928919 13.3893443,202.273999 C13.4416073,203.890301 13.5107006,205.502175 13.631171,207.114049 C13.8357936,209.816151 14.2547826,212.946906 15.9289673,215.168103 C16.7766893,216.295529 17.6111242,217.302507 18.8636623,218.018994 C19.1745823,218.222692 19.5067618,218.385651 19.8602008,218.513184 C20.3854873,218.734595 20.9116596,218.956006 21.4378319,219.18096 C22.2890972,219.367831 23.1509923,219.502449 24.0226312,219.578615 C26.0325386,219.758401 28.0637054,219.467909 30.0328655,219.049885 C31.288061,218.785077 32.5352843,218.502556 33.7957947,218.269632 C37.1140463,218.011909 40.479246,218.072133 43.7974977,218.212065 C47.5028491,218.371481 51.16391,218.817846 54.8347148,219.298751 C59.1610205,219.893019 63.4873261,220.486401 67.8083169,221.124951 C72.3410168,221.792727 76.8320835,222.70317 81.3373232,223.502022 C86.9152811,224.49483 92.4932391,225.345934 98.1225742,226.017253 C102.662361,226.556611 107.24378,227.110139 111.81457,227.314723 C116.506716,227.521964 121.219235,227.674295 125.914925,227.467054 C130.877243,227.251842 135.821846,226.940981 140.786822,226.864815 C142.915428,226.830275 145.067065,226.961351 147.192128,227.089769 C149.849564,227.245643 152.507,227.40063 155.164436,227.545876 C159.682963,227.795628 164.216549,227.986042 168.745705,227.999326 C173.638045,228.013497 178.496723,227.802713 183.378433,227.498051 C188.382385,227.182762 193.378364,226.663774 198.37523,226.293574 C202.984109,225.948173 207.610705,225.833925 212.230215,225.705506 C216.773544,225.581516 221.315988,225.407929 225.859318,225.252942 C230.679906,225.089983 235.503153,224.955365 240.320198,224.643618 C245.261257,224.325671 250.19523,223.910304 255.129203,223.525934 C264.693315,222.789077 274.257426,222.322343 283.845455,222.066391 C293.333387,221.813982 302.800945,221.208201 312.271161,220.630761 C316.838408,220.353554 321.437544,220.160483 326.011877,220.170226 C330.987482,220.180853 335.959545,220.264104 340.936037,220.284474 C342.482664,220.291559 344.032835,220.264104 345.586549,220.236649 C348.721438,220.180853 351.862527,220.125943 354.987672,220.353554 C357.333302,220.530683 359.665645,220.868999 362.005074,221.104581 C364.025611,221.310936 366.052349,221.407471 368.064914,221.648367 C368.937439,221.771472 369.809078,221.889262 370.689575,221.937973 C373.478997,222.093846 376.181609,220.714012 378.060416,218.731053 C379.042782,217.693077 379.82141,216.454945 380.572579,215.240726 C381.368038,213.960969 381.89421,212.466001 382.426583,211.06491 C382.68967,210.376764 382.887206,209.656735 383.070569,208.944677 C384.063564,205.079722 384.368283,201.077493 384.665916,197.108918 C384.952919,193.286475 385.312559,189.495029 384.510013,185.699155 C383.983841,183.205179 382.790652,180.904274 381.724135,178.600711 C381.344121,177.777062 381.046488,176.933042 380.55132,176.16873 C378.994062,173.767747 376.40572,172.044282 373.47191,172.044282 C371.893393,172.044282 370.010157,172.521645 368.665495,173.521538 C367.892181,173.57999 367.115324,173.610102 366.326951,173.597703 C365.04961,173.577334 363.769612,173.470171 362.495814,173.359465 C360.050087,173.148681 357.603475,172.89893 355.146232,172.795309 C351.043151,172.622608 347.042824,173.134511 342.99112,173.664127 C340.921864,173.92982 338.85615,174.241567 336.776264,174.428438 C334.111741,174.666677 331.450762,174.881888 328.780039,175.047504 C326.662063,175.182122 324.534342,175.290171 322.426995,175.511582 C317.496566,176.029684 312.575881,176.618638 307.651652,177.178366 C302.904585,177.718609 298.112343,178.02947 293.340474,178.226969 C288.526971,178.424468 283.665635,178.649422 278.845932,178.455466 C276.337313,178.354502 273.828693,178.250882 271.320074,178.102093 C269.125918,177.97456 266.922017,177.804517 264.720775,177.766434 C262.060681,177.718609 259.427162,177.715066 256.766183,177.787689 C254.464844,177.849684 252.167933,177.971018 249.866594,178.074638 C240.001306,178.517461 230.126274,178.451923 220.257443,178.168517 C215.78675,178.040098 211.3196,177.728351 206.848907,177.600818 C202.001744,177.462658 197.157238,177.341324 192.309189,177.341324 C182.388981,177.348409 172.468773,177.375864 162.545021,177.303242 C158.105332,177.272244 153.662099,177.317412 149.226838,177.203164 C144.2158,177.074745 139.219821,176.811709 134.215869,176.521217 C124.804117,175.974774 115.361361,176.002229 105.936322,175.943777 C101.420452,175.918979 96.908126,175.843699 92.4028863,175.517782 C87.7009964,175.175923 82.9946774,174.798638 78.2989881,174.338103 C73.4580257,173.864282 68.6214923,173.307212 63.7663569,173.01672 C58.8837613,172.726229 53.9949651,172.629694 49.1088262,172.442822 C44.6523062,172.272779 40.1922429,172.013285 35.7286364,172 L35.6613147,172 C33.5973728,172 31.5334309,172.155874 29.4721465,172.263037" id="Fill-3" fill="#2C2C2C"></path>
            <path d="M252.795118,234.924106 C252.682629,234.940875 252.568368,234.955878 252.454107,234.971764 C252.567482,234.954996 252.680857,234.939992 252.795118,234.924106 M305.037098,228.004829 C305.231075,228.030424 305.425053,228.057783 305.618145,228.08426 C305.424167,228.058666 305.231075,228.031306 305.037098,228.004829 M304.046837,227.87421 C304.254101,227.90157 304.461365,227.928047 304.668629,227.955406 C304.461365,227.929812 304.255873,227.90157 304.046837,227.87421 M352.912367,206.975171 C352.882251,207.048424 352.851251,207.120794 352.818478,207.195811 C352.849479,207.121676 352.881366,207.048424 352.912367,206.975171 M354.13292,205.344199 C353.569588,205.672511 353.294122,206.112909 353.047885,206.660979 C353.056743,206.636268 353.067372,206.613321 353.078001,206.589492 C353.064714,206.618616 353.051428,206.648624 353.039914,206.677748 C353.012456,206.739527 352.984112,206.803954 352.956654,206.868381 C352.952225,206.878089 352.948682,206.886915 352.944253,206.896623 C352.713075,207.435868 352.478353,207.972465 352.219716,208.499354 C351.913249,209.127737 351.514665,209.715522 351.098366,210.281244 C350.105449,211.482409 349.013328,212.552073 347.836176,213.570548 C347.306502,214.025949 346.758228,214.459286 346.207296,214.891741 C345.079746,215.730174 343.953081,216.575667 342.682041,217.184634 C342.148824,217.380563 341.612064,217.531481 341.054046,217.636505 C340.126673,217.721231 339.20373,217.735352 338.269271,217.74153 C336.940658,217.748591 335.608501,218.173102 334.373776,218.610852 C333.933562,218.765301 333.494233,218.934752 333.058448,219.099791 C332.048702,219.486353 331.048698,219.889683 330.055781,220.313312 C329.012376,220.751945 328.00883,221.269125 326.979597,221.737765 C325.573924,222.269067 324.123963,222.660924 322.643002,222.910689 C318.575672,223.33167 314.510114,222.618561 310.461385,222.230234 C308.745702,222.065195 307.036218,222.027245 305.320535,222.209935 C304.413535,222.302604 303.479962,222.416454 302.603963,222.675045 C301.728849,222.930105 300.881194,223.216055 300.029995,223.543485 C298.608378,224.095085 297.175247,224.501946 295.695171,224.870856 C294.17258,225.253887 292.684532,225.743709 291.186742,226.205288 C289.649979,226.677458 288.048556,226.818668 286.471049,227.06755 C284.844825,227.31908 283.228345,227.61915 281.637552,228.042779 C278.365619,228.915632 275.094572,229.771716 271.739379,230.273011 C270.313333,230.458348 268.861601,230.618092 267.427584,230.625152 L264.852731,230.635743 C263.431114,230.641921 262.015698,230.573081 260.594081,230.511302 C259.376185,230.462761 258.161832,230.359502 256.943936,230.301253 C255.400087,230.228883 253.878381,230.194463 252.338075,230.194463 C249.646303,230.200641 246.947446,230.545722 244.26276,230.711643 C242.972233,230.790191 241.671078,230.821963 240.377008,230.873152 C239.706501,230.897864 239.031565,230.949052 238.360172,230.987002 C236.490369,231.09291 234.649797,231.085849 232.792394,230.88286 C228.966872,230.250947 225.230811,229.106265 221.479691,228.149569 C217.898634,227.236119 214.317577,226.360619 210.69489,225.619268 C206.950856,224.850557 203.166079,224.253946 199.367129,223.836495 C197.601844,223.640566 195.848074,223.519655 194.069503,223.543485 C192.052667,223.571727 189.997744,223.830317 188.042911,224.336907 C186.267883,224.794956 184.575229,225.454229 182.887003,226.156747 C182.080978,226.494768 181.274952,226.818668 180.434382,227.06755 C179.587613,227.319962 178.738185,227.506183 177.873701,227.667691 C176.422855,227.827435 174.966694,227.93952 173.50699,227.87068 C171.653131,227.784189 169.809015,227.594439 167.957813,227.477058 C164.17215,227.237884 160.403315,226.916632 156.631824,226.521245 C156.097721,226.448875 155.56539,226.377387 155.031287,226.305017 C154.211089,226.194697 153.401521,226.012007 152.591952,225.850498 C151.003816,225.536307 149.436937,225.140037 147.886888,224.678458 C144.422749,223.644097 140.955952,222.630034 137.465241,221.703345 C134.316426,220.864913 131.199499,219.917042 128.081685,218.969172 C124.815952,217.972761 121.594507,216.83514 118.418234,215.580139 C116.982445,215.01177 115.539571,214.449578 114.103782,213.876796 C113.387216,213.684398 112.671536,213.684398 111.954971,213.876796 C110.945224,214.153038 110.065682,214.828197 109.536894,215.728409 C108.446545,217.586199 109.059478,220.182693 110.989511,221.240884 C112.744167,222.202875 114.619284,222.888624 116.490858,223.592025 C118.051537,224.178046 119.598043,224.788778 121.137463,225.429517 C124.17556,226.695109 127.289831,227.82567 130.420931,228.836202 C133.638833,229.86968 136.89748,230.766362 140.118926,231.793663 C143.534349,232.880095 146.928514,234.052136 150.446684,234.759067 C153.976368,235.468646 157.584883,235.810197 161.173026,236.054666 C164.49456,236.282367 167.822295,236.330908 171.147372,236.465057 C172.794853,236.530367 174.427277,236.558608 176.074758,236.492416 C177.980876,236.412986 179.901165,236.148218 181.769196,235.786368 C183.278502,235.493358 184.738205,235.048547 186.219167,234.651395 C187.561953,234.292192 188.892338,233.9983 190.252838,233.774129 C192.297132,233.625859 194.322825,233.618798 196.374205,233.768834 C198.719651,233.941816 201.055354,234.186285 203.3946,234.437815 C207.46193,234.878213 211.523945,235.385685 215.582417,235.915222 C218.112098,236.273541 220.641779,236.630978 223.171459,236.999889 C227.17413,237.589439 231.222859,238.24783 235.277788,237.906279 C237.360169,237.730649 239.380547,237.244358 241.425727,236.857797 C242.699425,236.620388 243.97578,236.396217 245.252135,236.164986 C247.571894,235.744887 249.881911,235.337144 252.213185,235.005301 C253.013896,234.938227 253.813722,234.867622 254.618862,234.799665 C255.490432,234.723765 256.383261,234.737886 257.261917,234.706996 C258.933314,234.648747 260.61091,234.645217 262.285849,234.596676 C264.001532,234.544605 265.711015,234.424576 267.427584,234.314256 C270.796949,234.097146 274.118483,233.334614 277.363844,232.428224 C280.561374,231.538603 283.696017,230.456583 286.954664,229.814962 C288.508256,229.50783 290.058306,229.266891 291.587983,228.85297 C292.352379,228.642921 293.110575,228.391391 293.871427,228.16016 C294.534849,227.954523 295.218642,227.827435 295.904206,227.712702 C297.327595,227.578552 298.751869,227.630624 300.182343,227.68799 C301.721763,227.746239 303.254098,227.845086 304.78909,227.972175 L304.92638,227.990708 C304.893607,227.986296 304.861721,227.981883 304.828948,227.97747 C308.462264,228.463761 311.97689,229.597852 315.606663,230.111502 C316.706755,230.266833 317.80419,230.397452 318.914026,230.483943 C321.046008,230.652512 323.162933,230.438932 325.256828,230.032071 C326.204572,229.849381 327.121316,229.525482 328.024773,229.194521 C329.246212,228.74618 330.366677,228.180459 331.439311,227.449699 C332.180677,226.946639 332.875985,226.375622 333.578379,225.816961 C334.738702,225.00677 335.93534,224.289248 337.217895,223.694402 C337.697082,223.524951 338.168297,223.386389 338.661655,223.284894 C340.387082,223.133094 342.13288,222.997179 343.767075,222.382035 C345.635106,221.675103 347.175412,220.548073 348.738748,219.341613 C349.956644,218.406981 351.130253,217.441459 352.288804,216.43534 C353.413697,215.459228 354.419901,214.318077 355.309186,213.125737 C355.800773,212.467347 356.236558,211.787775 356.630714,211.071136 C357.129387,210.167393 357.485455,209.167452 357.886697,208.223112 C358.136476,207.630031 357.938956,206.78542 357.627174,206.258532 C357.295021,205.68928 356.738774,205.265651 356.101926,205.089139 C355.881376,205.029125 355.65374,205 355.42699,205 C354.974375,205 354.525304,205.117381 354.13292,205.344199" id="Fill-5" fill="#2C2C2C"></path>
            <path d="M76.2849274,259.007519 C76.3459653,259.032116 76.4070032,259.058471 76.4680411,259.083947 C76.4070032,259.060228 76.3459653,259.033873 76.2849274,259.007519 Z M128.628901,253.077696 C128.532479,253.090873 128.435172,253.103172 128.336981,253.115471 C128.434287,253.102294 128.531594,253.090873 128.628901,253.077696 Z M134.049773,249.36958 C134.021466,249.437224 133.993159,249.506625 133.963967,249.574269 C133.992274,249.505746 134.021466,249.437224 134.049773,249.36958 Z M116.600013,248.613198 C116.613282,248.707197 116.625667,248.802074 116.638051,248.896073 C116.623013,248.802952 116.609744,248.708075 116.600013,248.613198 Z M141.617587,244.004628 C141.708702,244.013413 141.799817,244.024833 141.889162,244.040646 L141.617587,244.004628 Z M144.824288,243.300955 C144.804827,243.316768 144.784481,243.331703 144.76325,243.347515 C144.783596,243.331703 144.804827,243.316768 144.824288,243.300955 Z M150.917462,238.783748 C150.963462,238.803075 151.011231,238.82328 151.058999,238.843486 C151.010346,238.824159 150.963462,238.804832 150.917462,238.783748 Z M24.1895285,219.715195 C24.2611817,219.859268 24.3239888,220.005097 24.3761806,220.152684 L24.1895285,219.715195 Z M25.7278603,213.590347 C24.7185236,214.17718 23.9648383,215.147914 23.6543412,216.270627 C23.3155366,217.484703 23.5473037,218.624108 24.10726,219.722223 C24.2160667,219.932182 24.3231042,220.142142 24.429257,220.352102 C24.4274878,220.670994 24.404488,220.98813 24.3717576,221.307023 C23.7445711,225.529935 23.2951907,229.760754 23.042193,234.025834 C22.918348,236.14915 23.0395392,238.246111 23.7790708,240.260494 C24.7601001,242.940774 26.5806216,245.202013 28.6682944,247.12064 C30.6719296,248.962838 33.0462152,250.428163 35.5788454,251.423495 C38.139783,252.432882 40.7555663,252.854559 43.4783871,253.183993 C46.1808619,253.509914 48.9381824,253.427336 51.5990806,252.847531 C54.3360551,252.254549 56.8058782,250.692589 58.9970501,249.021697 C60.9387628,247.538802 62.8327067,245.988263 64.7293044,244.450902 C65.6492958,243.709454 66.5507105,242.957465 67.4078948,242.151887 C68.2854251,241.326983 69.0231874,240.326381 69.7308731,239.345983 C69.936102,239.747454 70.1360232,240.151561 70.3306368,240.560059 C70.88617,242.008693 71.3152045,243.481925 71.6027018,245.009623 C71.7389313,246.509209 71.7212392,247.992104 71.5858943,249.494326 C71.1621675,251.860106 70.48102,254.15297 69.9272559,256.492395 C69.6123358,257.823311 69.2841465,259.171797 69.1735706,260.537852 C69.048841,262.033924 69.3115693,263.448297 70.0749853,264.755494 C70.366021,265.184198 70.6942103,265.585669 71.0533608,265.956392 C71.7132777,266.667093 72.5872696,267.020247 73.4550692,267.380428 C75.7939704,268.355555 78.4477918,267.984831 80.8707308,267.58336 C82.7018676,267.277645 84.4949662,266.728587 86.2571036,266.162838 C88.3898914,265.479371 90.5147178,264.782727 92.601506,263.966607 C95.103175,262.987967 97.4951527,261.845049 99.7066705,260.318229 C101.88015,258.818643 103.811248,257.027397 105.605231,255.10262 C106.40757,254.239941 107.178062,253.334216 107.914056,252.3995 C108.043208,252.77198 108.195361,253.146218 108.37582,253.534512 C109.184351,255.270412 110.428994,256.777027 111.762097,258.149232 C113.244698,259.669902 115.093527,260.840053 117.069739,261.594678 C120.946973,263.077573 125.152395,262.343154 129.140204,261.794096 C131.088993,261.526156 132.934284,261.035957 134.724729,260.222473 C136.541712,259.401962 138.169389,258.152746 139.444108,256.62944 C141.500819,254.168783 142.672039,251.115144 143.431917,248.040421 C143.618569,247.28931 143.737991,246.519751 143.87422,245.756341 C144.483715,246.408182 145.262169,246.943184 146.034431,247.378038 C147.171151,248.019337 148.425524,248.139691 149.704666,248.228418 C150.744079,248.300455 151.878146,248.012309 152.873329,247.72065 C153.926896,247.405271 154.942425,246.897503 155.944685,246.461771 C157.037174,245.984749 158.073934,245.373319 159.093001,244.762766 C161.615016,243.252638 164.096339,241.712641 166.508663,240.027693 C168.903295,238.348894 171.276696,236.571705 173.81021,235.099352 C175.15039,234.320129 176.511801,233.57956 177.867019,232.820543 C178.429629,232.505164 178.948009,232.121263 179.473465,231.747025 C180.316496,231.14965 181.08345,230.490781 181.777867,229.732642 C182.359054,229.097492 182.856203,228.390306 183.367506,227.704204 C183.789464,226.987354 184,226.211645 184,225.384984 C184,224.166515 183.509043,222.989336 182.645666,222.131049 C182.068903,221.561786 181.384217,221.167343 180.59957,220.94772 C179.49735,220.645518 177.994402,220.724583 177.03018,221.410685 C174.839893,222.97528 172.258609,223.830053 169.998438,225.271659 C167.984188,226.551622 166.062821,227.948424 164.134378,229.351377 C162.154627,230.792982 160.157184,232.195935 158.12878,233.576046 C157.21675,234.193626 156.279951,234.762889 155.33696,235.336544 C153.809243,236.264232 152.290373,237.186649 150.668888,237.943909 C150.474274,238.017703 150.277891,238.087104 150.079739,238.151234 C147.685992,236.135972 144.903903,234.299045 141.617587,234.982512 C139.492761,235.425272 137.958852,236.911681 137.005246,238.791655 C136.237407,240.314082 135.97114,241.958619 135.770334,243.623362 C135.474876,245.387374 134.958265,247.086379 134.301002,248.749364 C133.942736,249.49169 133.534932,250.189213 133.071398,250.863895 C132.7954,251.163461 132.512326,251.442822 132.210675,251.714276 C131.808179,251.981337 131.40126,252.21853 130.971341,252.433761 C129.878851,252.7957 128.789899,253.027622 127.646987,253.20332 C125.649544,253.447541 123.620255,253.617969 121.617505,253.495858 C121.146009,253.397467 120.690436,253.277992 120.235748,253.126013 C119.89429,252.942408 119.565216,252.74914 119.240565,252.540059 C118.622225,251.998029 118.057846,251.419102 117.526197,250.795373 C117.253738,250.393023 117.011355,249.988038 116.792857,249.562848 C116.774281,249.501354 116.756589,249.439859 116.739781,249.377486 C116.689358,248.032515 116.830011,246.693692 116.935279,245.349599 C117.014894,244.303315 117.111316,243.252638 117.228969,242.209868 C117.360775,241.02566 117.495235,239.845845 117.640311,238.665152 C117.736733,237.875387 117.847309,237.090015 117.830502,236.294101 C117.792463,234.495827 116.883972,232.587742 115.173142,231.812033 C114.437149,231.390357 113.645425,231.176884 112.795318,231.17337 C111.589598,231.17337 110.297187,231.653905 109.46831,232.542939 C108.701356,233.359937 108.341321,234.039011 107.947671,235.068604 C107.822941,235.394525 107.708827,235.720446 107.592059,236.04988 C107.446098,236.460136 107.288638,236.865999 107.124986,237.269227 C106.309378,239.041146 105.394694,240.755963 104.436665,242.456724 C103.520212,244.076664 102.415338,245.570979 101.313117,247.06793 C99.590787,249.184218 97.7339966,251.143256 95.618901,252.876521 C94.0531463,253.999234 92.3980464,254.926044 90.6394474,255.717565 C89.1807302,256.293856 87.6945902,256.837643 86.1951811,257.295337 C84.0340859,257.951571 81.8897982,258.614833 79.6827034,259.054957 C79.8357404,258.696532 79.9887775,258.339864 80.1347376,257.98144 C81.0883441,255.641136 81.8862598,253.286777 82.304679,250.789223 C82.6080992,248.994464 82.7469825,247.19619 82.6638295,245.380347 C82.5735995,243.352786 82.1799493,241.31732 81.6067239,239.371459 C81.2882654,238.283886 80.8326927,237.237602 80.3833123,236.197467 C80.0515846,235.4323 79.71278,234.660105 79.3085146,233.925686 C78.915749,233.220257 78.5212142,232.51922 78.1549869,231.80237 C77.7100295,230.347587 77.6171457,228.849758 77.2597645,227.364227 C76.9758056,226.180898 76.4131954,225.161847 75.6143952,224.251729 C75.0199392,223.572654 73.862873,222.787282 72.9437662,222.60807 C71.7822771,222.382297 70.8596318,222.310261 69.7061041,222.632668 C68.5791146,222.95156 67.5565088,223.651719 66.8373232,224.557444 C66.2809053,225.264631 65.828871,225.90593 65.4210671,226.692181 C65.254761,227.007559 65.106147,227.329966 64.9539946,227.653251 C64.6948047,228.198795 64.4533069,228.754002 64.2082708,229.30306 C63.2413952,231.459758 62.2373661,233.563747 60.8794941,235.499944 C59.7100435,236.861607 58.3946327,238.087104 57.0933756,239.320507 C55.7036577,240.638245 54.2900555,241.934021 52.8189539,243.160397 C51.965308,243.779734 51.0877777,244.344604 50.1394789,244.817233 C49.389332,245.080781 48.6409544,245.281077 47.8571924,245.427785 C46.0747091,245.581521 44.2984179,245.524419 42.519473,245.332908 C41.0651788,245.096594 39.6657304,244.749589 38.2857432,244.238307 C37.2949832,243.755136 36.3732226,243.209592 35.4788848,242.577078 C34.5509319,241.799612 33.7052475,240.966801 32.9232548,240.049655 C32.5251815,239.470729 32.1757617,238.881261 31.8573032,238.259288 C31.7369966,237.895592 31.6326129,237.533654 31.5432676,237.160294 C31.4839989,235.853976 31.6503051,234.559957 31.7918422,233.253639 L32.1032239,230.360764 C32.2509533,228.974503 32.4225671,227.589121 32.6012578,226.205496 C32.7711023,225.135492 32.9436007,224.066367 33.1293682,222.999877 C33.3160203,221.91494 33.5124031,220.779049 33.4159809,219.674784 C33.3328279,218.755003 33.2089829,218.16817 32.8940627,217.333602 C32.6145269,216.593033 32.2615686,215.899903 31.9024181,215.199745 C31.1646558,213.753746 29.5794398,213 28.0039545,213 C27.2051542,213 26.4090078,213.194147 25.7278603,213.590347 Z" id="Fill-7" fill="#2C2C2C"></path>
            <path d="M272.53213,234.393336 C272.439103,234.517109 272.344304,234.639991 272.25039,234.762874 C272.343418,234.639101 272.438217,234.517109 272.53213,234.393336 M339.90239,224.578754 C339.89796,224.576083 339.892644,224.573411 339.888214,224.57074 C339.958206,224.600125 340.027312,224.62862 340.096418,224.658005 C340.033514,224.633962 339.967952,224.606358 339.90239,224.578754 M232.765239,222.084593 C231.470833,222.442556 230.754967,223.788922 231.076575,225.075627 C231.578036,227.100519 232.02811,229.14233 232.599562,231.148522 C233.225945,233.343491 234.163304,235.562501 235.461255,237.444921 C236.710476,239.256994 238.306113,240.81885 239.985032,242.23111 C241.469036,243.475964 242.950383,244.721709 244.459195,245.942521 C246.221395,247.368138 248.027893,248.732313 249.845024,250.092036 C251.702909,251.486486 254.073772,252.112475 256.364898,251.841777 C257.635383,251.692181 258.832332,251.424155 260.033711,250.978928 C261.220029,250.540824 262.386855,250.008333 263.532418,249.466047 C264.843658,248.840058 266.127432,248.140161 267.415637,247.466087 C268.813702,246.731463 270.218855,246.004853 271.578823,245.198102 C273.772492,243.904272 275.721632,242.311251 277.493578,240.481368 C278.18818,239.763662 278.832283,238.990748 279.477271,238.224068 C279.683702,238.861633 279.896336,239.497417 280.126689,240.126077 C280.642325,241.532104 281.227067,242.915869 281.888889,244.255111 C282.570202,245.632643 283.477438,246.84277 284.456438,248.015497 C285.345955,249.076028 286.480886,249.897026 287.581264,250.710901 C288.619624,251.479363 289.772275,252.112475 290.91075,252.721546 C292.170604,253.39651 293.46501,254.011813 294.752328,254.631569 C296.469344,255.458801 298.178385,256.290484 299.915778,257.062508 C302.819997,258.356337 305.709154,259.653728 308.686023,260.777481 C314.236643,262.8745 320.009642,264.165658 325.906677,264.749795 C328.934932,265.048988 331.959643,264.996451 334.99853,264.996451 C336.939697,264.992889 338.885293,264.902953 340.826459,264.846855 C343.979637,264.756919 347.118638,264.447041 350.219543,263.872698 C352.001235,263.538778 353.721794,262.989368 355.392739,262.283238 C357.168228,261.535257 358.86398,260.721382 360.397599,259.535298 C361.165738,258.940475 361.888691,258.359899 362.567347,257.671578 C363.228282,257.003738 363.778472,256.192534 364.256011,255.389345 C364.740638,254.571909 365.069334,253.622685 365.353731,252.717984 C365.495487,252.144532 365.588514,251.563065 365.633699,250.971804 C365.706348,250.352939 365.71698,249.775034 365.682427,249.152607 C365.586742,247.532872 365.169449,245.992386 364.514715,244.556975 C364.903657,244.608621 365.292599,244.654925 365.682427,244.700338 C367.496014,244.909595 369.306056,245.065424 371.125844,245.183854 C372.267863,245.260433 373.409882,245.347698 374.551901,245.378864 C375.219925,245.395782 376.064257,245.281804 376.687982,245.152689 C377.410935,245.006654 377.971756,244.759998 378.667245,244.464368 C379.833185,243.966604 380.767886,243.242665 381.761062,242.453723 C382.99345,241.476005 383.999915,240.234712 385.021442,239.048628 C385.290778,238.731626 385.54771,238.397706 385.8073,238.07091 C386.250286,237.514376 386.679097,236.954281 387.076899,236.366581 C387.447236,235.823404 387.654553,235.169811 387.83795,234.543822 C388.312831,232.932991 387.703282,231.013173 386.540885,229.844898 C385.433419,228.731831 383.875879,228.407705 382.376813,228.571549 C380.740421,228.752311 379.120863,229.020338 377.503963,229.347134 C375.89858,229.677492 374.773394,231.378259 374.773394,232.954362 C374.773394,234.06743 375.29346,235.10748 376.10324,235.805595 C375.959712,235.943616 375.813526,236.079855 375.663797,236.212533 C375.402435,236.382609 375.138415,236.539329 374.861992,236.683583 C374.839842,236.689816 374.815921,236.69694 374.792886,236.703173 C373.116625,236.809137 371.38632,236.622141 369.717147,236.54022 C368.259722,236.468983 366.804069,236.343429 365.356389,236.172462 C364.304739,236.012181 363.271695,235.804705 362.238651,235.525102 C361.325213,235.273994 360.459617,234.881304 359.58782,234.516218 C358.986244,234.263329 358.385555,234.012221 357.785751,233.760223 C356.611837,233.213484 355.410458,232.707707 354.275527,232.091513 C352.856198,231.323051 351.443958,230.560823 350.063612,229.730029 C348.720477,228.922388 347.380886,228.112075 346.042181,227.305324 C344.501475,226.373018 342.872171,225.639285 341.20034,224.985692 C340.702423,224.789792 340.189445,224.637524 339.683554,224.460324 C339.130707,224.179831 338.542421,224.039139 337.916039,224.035577 C336.877678,224.035577 335.870327,224.456762 335.133198,225.194058 C334.645027,225.68826 334.310129,226.268835 334.123189,226.940238 C333.867143,227.879666 333.929161,229.16281 334.520991,229.98737 C335.593904,231.486004 337.022978,232.728187 338.407754,233.93119 C339.840372,235.173373 341.376649,236.293564 342.896092,237.427112 C346.115717,239.83757 349.690618,241.722661 352.922646,244.117091 C353.874181,244.904252 354.746864,245.747512 355.54424,246.688721 C355.88534,247.198951 356.184798,247.722538 356.45502,248.271058 C356.556907,248.591621 356.643732,248.909513 356.718154,249.2372 C356.730558,249.488308 356.735873,249.737635 356.73233,249.992305 C356.696005,250.148134 356.65525,250.303964 356.609179,250.461574 C356.496661,250.677064 356.376169,250.88543 356.245931,251.092015 C355.960647,251.386755 355.663846,251.662796 355.353756,251.928151 C354.438546,252.559483 353.471064,253.082179 352.462827,253.549668 C350.503941,254.293197 348.503414,254.769589 346.436439,255.095495 C342.855337,255.508666 339.228164,255.4962 335.628457,255.580793 C334.240137,255.61552 332.845616,255.577231 331.458183,255.573669 C329.058082,255.570107 326.6695,255.427635 324.288891,255.146251 C321.590217,254.737533 318.934071,254.152505 316.302731,253.413428 C313.635953,252.664557 311.036509,251.707319 308.461872,250.687749 C306.562346,249.86497 304.651303,249.064452 302.7819,248.17845 C301.328019,247.49013 299.874137,246.801809 298.421142,246.109036 C296.254052,245.084124 294.097594,244.01647 292.120103,242.648733 C291.611555,242.203506 291.141103,241.729784 290.697231,241.218664 C290.098313,240.311291 289.603054,239.356725 289.154752,238.367431 C288.464579,236.610566 287.853258,234.815411 287.328762,233.002447 C287.072716,232.102198 286.813126,231.204621 286.564167,230.29992 C286.425956,229.788799 286.277112,229.284802 286.090172,228.783477 C285.881968,228.230505 285.671107,227.67041 285.335323,227.17977 C284.79931,226.400623 284.255322,225.872583 283.439341,225.405986 C282.750054,225.00261 282.005837,224.801368 281.20669,224.797806 C280.275532,224.797806 279.50385,225.09967 278.71179,225.555582 C277.669886,226.153967 277.016038,227.218059 276.44813,228.241191 C276.060074,228.936635 275.693281,229.642765 275.299023,230.334647 C274.532656,231.680123 273.623648,232.951691 272.688947,234.187641 C271.638183,235.521541 270.513884,236.773519 269.221249,237.873229 C267.407663,239.208019 265.464725,240.336224 263.52533,241.472443 C261.546067,242.633595 259.565917,243.796527 257.480337,244.748423 C256.763585,245.011106 256.041518,245.218582 255.293756,245.374412 C255.047456,245.389549 254.806471,245.394002 254.561057,245.384207 C254.219957,245.297833 253.890375,245.197211 253.558136,245.082343 C252.405485,244.508 251.336116,243.769814 250.253457,243.07615 C249.44988,242.561468 248.681741,242.012058 247.906515,241.451963 C246.443774,240.398556 245.016472,239.30864 243.586511,238.213382 C242.175157,237.059354 240.83025,235.885736 239.656336,234.484162 C238.92718,233.455688 238.34421,232.355087 237.832118,231.200168 C236.90539,228.803957 236.365833,226.271507 235.742108,223.781798 C235.472772,222.708801 234.44593,222 233.386306,222 C233.178989,222 232.970785,222.026714 232.765239,222.084593" id="Fill-9" fill="#2C2C2C"></path>
            <path d="M373.020113,265.901151 C372.954638,266.057425 372.888279,266.214582 372.821919,266.370856 C372.985606,265.985027 373.150178,265.596548 373.312981,265.20807 L373.020113,265.901151 Z M372.500738,267.128389 C372.64319,266.791119 372.786527,266.455615 372.928095,266.117462 C372.785642,266.453849 372.64319,266.791119 372.500738,267.128389 Z M372.729016,266.5907 L372.821919,266.370856 C372.790951,266.444137 372.759983,266.518301 372.729016,266.5907 Z M372.345014,267.498326 L372.500738,267.128389 L372.345014,267.498326 Z M19.3426184,210.281647 C17.2934322,211.112461 15.2026607,211.854101 13.402102,213.161684 C11.8705212,214.268847 10.4946644,215.458121 9.17101045,216.78601 C8.05528346,217.9073 7.01122489,219.3173 6.1060792,220.583386 C4.24270009,223.187074 3.04380232,226.335514 2.33862039,229.450404 C1.84048058,231.650604 1.37773259,233.857868 0.883131961,236.058068 C0.323056474,238.554924 -0.112262862,241.080033 0.0257652199,243.649288 C0.146982189,245.921886 0.471702101,248.246576 1.08398052,250.432649 C1.71660923,252.688472 2.30411337,254.947827 2.72881516,257.251327 C3.12962748,259.438284 3.35082633,261.655259 3.76933455,263.838684 C4.38426735,267.042747 5.18943116,270.098482 6.74490147,273.009421 C7.59518985,274.605714 8.88433675,276.147267 10.0425339,277.496346 C10.7194024,278.285663 11.5077551,278.961969 12.3058406,279.62768 C14.0276524,281.062401 15.7866256,282.414129 17.7084013,283.573383 C19.8071359,284.841235 22.1191063,285.592588 24.3824129,286.480791 C26.64395,287.496132 28.8992934,288.507941 31.2908954,289.194842 C33.3445055,289.784622 35.4211203,290.325843 37.4880024,290.863533 C39.6070874,291.415349 41.8155367,291.643138 43.9169257,292.270884 C46.281099,292.978091 48.6134197,293.76476 50.9501644,294.547014 C55.3599846,296.026763 59.777768,297.430582 64.3017269,298.516556 C68.7292431,299.579574 73.2116166,299.448021 77.711686,299.29263 C79.9201353,299.213168 82.135663,299.320883 84.3441123,299.393281 C87.5691915,299.500113 90.7969251,299.568979 94.0220043,299.596349 C95.1483489,299.606944 96.2791174,299.603412 97.4090011,299.603412 C99.7457458,299.599881 102.085145,299.596349 104.41835,299.686406 C111.456013,299.969818 118.498099,300.721171 125.493292,301.554633 C130.446376,302.285679 135.389728,303.095303 140.370242,303.617983 C144.973832,304.104464 149.615469,304.338434 154.23941,304.590062 C163.634167,305.100381 173.044851,305.073011 182.442263,305.525058 C187.163531,305.749316 191.891878,305.932078 196.620224,305.910888 C201.648517,305.890581 206.674154,305.800525 211.699792,305.76256 C216.234369,305.728127 220.772484,305.738722 225.307061,305.728127 C230.066375,305.714883 234.831883,305.611583 239.591198,305.690162 C242.470322,305.738722 245.349446,305.797876 248.22857,305.879986 C250.589204,305.952385 252.977267,306.059216 255.334362,305.959448 C256.768615,305.897645 258.224104,305.910888 259.651279,305.769623 C261.061643,305.628358 262.472007,305.483562 263.881486,305.342297 C266.785384,305.052704 269.67778,304.581233 272.569292,304.174213 C274.514957,303.918171 276.470355,303.648885 278.425752,303.531458 C280.951843,303.38313 283.471741,303.276299 286.001371,303.2039 C290.604961,303.069699 295.219169,303.082942 299.826299,302.997301 C304.505982,302.907244 309.185664,302.855153 313.866232,302.818071 C318.002651,302.782755 322.085097,302.373086 325.972888,300.865967 C328.157447,300.021027 330.317233,299.120463 332.498254,298.264928 C336.559464,296.668635 340.530426,294.899293 344.488116,293.057552 C348.265308,291.302337 352.019494,289.601861 355.513551,287.315136 C359.208457,284.901273 362.249499,281.721048 365.215333,278.493146 C366.860168,276.702614 368.419177,274.754042 369.673817,272.671269 C370.93819,270.570837 371.97517,268.370637 372.928979,266.114814 C372.928979,266.115697 372.928095,266.116579 372.928095,266.117462 C372.959062,266.045064 372.99003,265.972666 373.020113,265.901151 C374.464099,262.464883 375.806334,259.025084 376.395608,255.320413 C376.654853,253.674678 376.917637,252.033357 377.204311,250.392036 C377.370652,249.446444 377.574155,248.51233 377.733418,247.566739 C377.978507,246.721798 378.054599,245.870677 377.961696,245.015142 C377.836939,243.014479 377.249435,241.2522 375.80191,239.806884 C373.865978,237.87597 370.78689,236.882701 368.156393,237.889213 C366.946878,238.227366 365.89928,238.838337 365.007406,239.721242 C363.676674,241.049131 362.916635,242.873214 362.916635,244.752919 C362.919289,245.221742 362.964414,245.678204 363.051123,246.123188 C363.035197,246.416313 363.028119,246.711203 363.034312,247.005211 C363.058202,248.136213 363.310369,249.274277 363.507678,250.392036 C363.658978,251.240508 363.855403,252.081916 364.024398,252.928623 C364.094297,253.875097 364.095182,254.809211 364.035016,255.759217 C363.549263,258.104214 362.788339,260.349442 361.930088,262.586724 C360.988665,264.65802 359.946376,266.637494 358.667847,268.526028 C356.617776,270.995514 354.390746,273.318438 351.95048,275.401212 C348.7953,277.573159 345.341944,279.150911 341.826651,280.666859 C340.414518,281.260172 339.005039,281.852601 337.59556,282.448562 C334.878353,283.558374 332.12664,284.591373 329.390852,285.656157 C325.516333,287.165925 321.684284,289.080064 317.580603,289.860552 C315.288983,290.06362 312.982322,290.068918 310.682738,290.132487 C308.515874,290.195173 306.345471,290.298473 304.177722,290.387647 C299.4945,290.588066 294.811278,290.743458 290.128056,290.929751 C285.13781,291.122224 280.174108,291.398573 275.207752,291.915956 C270.642207,292.391842 266.107631,293.064616 261.524391,293.381579 C256.817279,293.709137 252.1199,293.495473 247.412789,293.240314 C242.840166,292.992217 238.264005,292.843889 233.684304,292.826231 C223.779019,292.788266 213.873735,292.805924 203.971104,292.960433 C199.27815,293.036363 194.587849,293.099049 189.89401,293.043426 C185.214327,292.988686 180.538183,292.767959 175.8585,292.636407 C171.044329,292.505737 166.225733,292.495142 161.408022,292.402437 C156.880524,292.31238 152.35568,292.074879 147.831721,291.901829 C143.083024,291.7226 138.354678,291.481566 133.62987,290.919156 C128.621928,290.322312 123.613986,289.804929 118.582155,289.432343 C113.864426,289.080947 109.146697,288.625368 104.41835,288.408173 C99.9731382,288.205105 95.511115,288.332243 91.0632485,288.232475 C88.0319395,288.163608 85.011248,288.035587 81.9870173,287.856357 C78.1496597,287.631216 74.2654079,287.800734 70.4386678,287.411373 C66.6632458,286.764203 62.9993081,285.615543 59.3451031,284.476596 C56.2766327,283.51776 53.2143558,282.531555 50.1520789,281.54535 C47.1756272,280.582983 44.1310462,280.058537 41.0793869,279.396358 C39.6522119,279.086459 38.2383089,278.651186 36.8350234,278.247699 C35.6502823,277.906897 34.4832372,277.546672 33.3330032,277.125526 C32.1916171,276.550755 31.0900469,275.91418 29.9575087,275.316453 C28.7639198,274.688707 27.5331694,274.128062 26.3900137,273.412909 C25.9962797,273.055332 25.6237809,272.681863 25.264554,272.28279 C24.0046053,270.536403 22.8702976,268.716736 21.9297601,266.781407 C21.5413349,265.630099 21.3130577,264.456717 21.1245963,263.261264 C20.723784,259.696092 20.4795804,256.072648 19.7646658,252.564866 C19.4328675,250.929725 18.9727739,249.332549 18.4135832,247.760095 C17.765913,245.951022 17.065155,244.195806 16.6475316,242.328461 C16.6218725,241.810196 16.6236421,241.295462 16.6554947,240.774548 C16.8651912,239.527003 17.0916989,238.282106 17.2969714,237.031029 C17.674779,234.714286 18.0499323,232.400191 18.7825429,230.167323 C19.0816037,229.604913 19.4098628,229.069872 19.7655506,228.545426 C20.4583453,227.781713 21.1741448,227.06038 21.9448016,226.383191 C22.3942777,226.09713 22.8517169,225.840204 23.3339304,225.607117 C23.4064836,225.577982 23.4799216,225.548846 23.5524749,225.518827 C24.1815644,225.253072 24.8141931,224.987318 25.4432826,224.721563 C26.6324476,224.017888 27.5791787,223.073179 28.2843606,221.886554 C29.3523087,220.062472 29.6460608,217.837551 29.0824461,215.799805 C28.5365273,213.823863 27.2128734,212.112792 25.4432826,211.078027 C24.8141931,210.812273 24.1815644,210.547401 23.5524749,210.281647 C22.8508321,210.093588 22.1491894,210 21.4475466,210 C20.7459039,210 20.0442611,210.093588 19.3426184,210.281647 Z" id="Fill-11" fill="#2C2C2C"></path>
        </g>
    </g>
</svg>